<?xml version="1.0" standalone="no"?>
<svg xmlns="http://www.w3.org/2000/svg" xmlns:xlink="http://www.w3.org/1999/xlink"
  viewBox="-2 -1 300 50"
  width="296" height="52"
  preserverAspectRatio="xMinYMin">
  <!--
  -->

  <defs>
    <view id="pos" viewBox="0 0 20 30" />
    <style type="text/css">
.place { stroke: red; stroke-width: .5; fill: none }
    </style>
  </defs>

  <!--<image xlink:href="logo.png" width="100%" height="100%" />
stroke="#a1b382" stroke-width="3" "#ccee99"
  -->

  <g fill="none" stroke="black" stroke-width="5">
    <g id="c" fill-rule="evenodd">
      <rect id="lieruke" x="9" y="0" width="21.5" height="7" ry="3" rx="8" />
      <g id="boltseijaalalieruke">
        <ellipse id="boltsi" cx="6" cy="10.5" rx="4" ry="3.6" />
        <g id="kolmeboltsia">
          <use xlink:href="#boltsi" y="6.4" />
          <use xlink:href="#boltsi" y="13" />
          <use xlink:href="#boltsi" y="20" />
        </g>
        <use xlink:href="#boltsi" y="26.4" />
        <use xlink:href="#lieruke" y="40.2" />
      </g>
      <use xlink:href="#boltsi" x="26.4" y="0" />
      <use xlink:href="#boltsi" x="27" y="26.6" />
    </g>
    <g id="o" transform="translate(40.6,0)">
      <use xlink:href="#c" />
      <use xlink:href="#kolmeboltsia" x="27"/>
    </g>
    <g id="m" transform="translate(84.6,0)">
      <g id="kokoriviboltseja">
        <use xlink:href="#kolmeboltsia" y="-13" />
        <use xlink:href="#kolmeboltsia" y="13" />
        <use xlink:href="#boltsi" y="13" />
      </g>
      <rect id="pikkulieruke" x="7.4" y="7" width="10" height="6" ry="3" rx="8" />
      <use xlink:href="#pikkulieruke" x="15.4" />
      <rect id="semilieruke" x="12" y="13" width="15" height="7" ry="3" rx="8" />
      <use xlink:href="#boltsi" x="14" y="12.6" />
      <use xlink:href="#kokoriviboltseja" x="27" />
    </g>
    <use xlink:href="#m" x="45" />
    <g id="u" transform="translate(173.5,0)">
      <use xlink:href="#boltseijaalalieruke" />
      <use xlink:href="#boltsi" y="-7" />
      <use xlink:href="#kolmeboltsia" x="27" y="6.4" />
      <use xlink:href="#kolmeboltsia" x="27" y="-13.4" />
    </g>
    <g id="n" transform="translate(217.6,0)">
      <use xlink:href="#kokoriviboltseja" />
      <use xlink:href="#pikkulieruke" />
      <use xlink:href="#pikkulieruke" x="15.4" y="13" />
      <use xlink:href="#boltsi" x="14" y="6" />
      <use xlink:href="#kokoriviboltseja" x="27" />
    </g>
    <g id="e" transform="translate(262,0)">
      <use xlink:href="#boltseijaalalieruke" />
      <use xlink:href="#lieruke" x="-3" y="20" />
      <use xlink:href="#lieruke" />
    </g>
  </g>

  <g fill="#a8a589">
    <g id="c" fill-rule="evenodd">
      <rect id="lieruke" x="9" y="0" width="21.5" height="7" ry="3" rx="8" />
      <g id="boltseijaalalieruke">
        <ellipse id="boltsi" cx="6" cy="10.5" rx="4" ry="3.6" />
        <g id="kolmeboltsia">
          <use xlink:href="#boltsi" y="6.4" />
          <use xlink:href="#boltsi" y="13" />
          <use xlink:href="#boltsi" y="20" />
        </g>
        <use xlink:href="#boltsi" y="26.4" />
        <use xlink:href="#lieruke" y="40.2" />
      </g>
      <use xlink:href="#boltsi" x="26.4" y="0" />
      <use xlink:href="#boltsi" x="27" y="26.6" />
    </g>
    <g id="o" transform="translate(40.6,0)">
      <use xlink:href="#c" />
      <use xlink:href="#kolmeboltsia" x="27"/>
    </g>
    <g id="m" transform="translate(84.6,0)">
      <g id="kokoriviboltseja">
        <use xlink:href="#kolmeboltsia" y="-13" />
        <use xlink:href="#kolmeboltsia" y="13" />
        <use xlink:href="#boltsi" y="13" />
      </g>
      <rect id="pikkulieruke" x="7.4" y="7" width="10" height="6" ry="3" rx="8" />
      <use xlink:href="#pikkulieruke" x="15.4" />
      <rect id="semilieruke" x="12" y="13" width="15" height="7" ry="3" rx="8" />
      <use xlink:href="#boltsi" x="14" y="12.6" />
      <use xlink:href="#kokoriviboltseja" x="27" />
    </g>
    <use xlink:href="#m" x="45" />
    <g id="u" transform="translate(173.5,0)">
      <use xlink:href="#boltseijaalalieruke" />
      <use xlink:href="#boltsi" y="-7" />
      <use xlink:href="#kolmeboltsia" x="27" y="6.4" />
      <use xlink:href="#kolmeboltsia" x="27" y="-13.4" />
    </g>
    <g id="n" transform="translate(217.6,0)">
      <use xlink:href="#kokoriviboltseja" />
      <use xlink:href="#pikkulieruke" />
      <use xlink:href="#pikkulieruke" x="15.4" y="13" />
      <use xlink:href="#boltsi" x="14" y="6" />
      <use xlink:href="#kokoriviboltseja" x="27" />
    </g>
    <g id="e" transform="translate(262,0)">
      <use xlink:href="#boltseijaalalieruke" />
      <use xlink:href="#lieruke" x="-3" y="20" />
      <use xlink:href="#lieruke" />
    </g>
  </g>
</svg>
