<?xml version="1.0" standalone="no"?>
<svg xmlns="http://www.w3.org/2000/svg" xmlns:xlink="http://www.w3.org/1999/xlink"
  baseProfile="full" version="1.1"
  preserveAspectRatio="xMinYMin"
  width="1em" height="1em"
  viewBox="-10,-10 340,340">

  <defs>
    <!--
    <view id="trash" viewBox="-10,0 330,330" />
    <view id="edit" viewBox="320,0 330,330" />
    <view id="quote" viewBox="650,0 330,330" />
    <view id="lock" viewBox="-10,330 330,330" />
    <view id="favourite" viewBox="320,330 330,330" />
    -->

    <linearGradient id="bg" x1="0%" y1="0%" x2="0%" y2="100%">
      <stop offset="50%" stop-color="grey" />
      <stop offset="100%" stop-color="darkgrey" />
    </linearGradient>

    <linearGradient id="bg_on" x1="0%" y1="0%" x2="0%" y2="100%">
      <stop offset="50%" stop-color="orangered" />
      <stop offset="100%" stop-color="gold" />
    </linearGradient>

    <linearGradient id="bggleam" x1="0%" y1="0%" x2="0%" y2="100%">
      <stop offset="0%" stop-color="white" stop-opacity=".6" />
      <stop offset="50%" stop-color="white" stop-opacity=".4" />
      <stop offset="90%" stop-color="white" stop-opacity="0" />
    </linearGradient>

    <g id="butbg">
      <rect fill="url(#bg)" width="300" height="300" rx="50" ry="50" stroke="black" stroke-width="10" />
      <path fill="url(#bggleam)" d="M9,32 q8,-25 40,-29 h205 q35,7 43,40 l-10,50 q-80,150 -278,130 q15,-120 0,-180 z" />
      <path id="gleam" fill="white" fill-opacity=".6" d="M9,32 q8,-25 40,-29 h205 q35,7 43,40 q-20,-30 -60,-28 h-200 q-30,10 -28,30 z" />
      <use xlink:href="#gleam" x="0" y="200" transform="rotate(180,150,250)" />
    </g>
  </defs>

  <use xlink:href="#butbg" />

  <!--
  <g id="trashcan">
    <use xlink:href="#butbg" />
    <g transform="translate(-445,-200) scale(1.2)">
      <g fill="none" stroke="black" stroke-linejoin="round" stroke-linecap="round" stroke-width="8">
        <path stroke-width="14" d="M436,213 C562,213 562,214 562,214" />
        <path stroke-width="9" d="M558,219 L543,372 L469,372 C441,219 441,219 441,219" />
        <path stroke-width="8" d="M445,243 L556,243 M552,270 L451,270 M455,295 L550,295 M460,320 L547,321 M545,347 L465,347M469,214 L488,371 M505,370 L500,214 M530,215 L524,372" />
      </g>
    </g>

    <g transform="translate(-445,-190) scale(1.2)">
      <g fill="none" stroke="white" stroke-linejoin="round" stroke-linecap="round" stroke-width="8">
        <path stroke-width="14" d="M436,213 C562,213 562,214 562,214" />
        <path stroke-width="9" d="M558,219 L543,372 L469,372 C441,219 441,219 441,219" />
        <path d="M445,243 L556,243 M552,270 L451,270 M455,295 L550,295 M460,320 L547,321 M545,347 L465,347M469,214 L488,371 M505,370 L500,214 M530,215 L524,372" />
      </g>
    </g>
  </g>

  <g id="pen" transform="translate(330,0)">
    <use xlink:href="#butbg"/>
    <g transform="scale(.8) translate(10,30)" fill="black">
      <rect x="80" y="200" width="250" height="70" transform="rotate(-45,80,200)" />
      <path d="M55,275 l20,-70 50,50 z" />
    </g>
    <g transform="scale(.8) translate(10,40)" fill="white">
      <rect x="80" y="200" width="250" height="70" transform="rotate(-45,80,200)" />
      <path d="M55,275 l20,-70 50,50 z" />
    </g>
  </g>

  <g id="quotes" transform="translate(660,0)">
    <use xlink:href="#butbg" />
    <g font-size="500" font-weight="bold">
      <text x="20" y="405" fill="black">&#8220;</text>
      <text x="20" y="415" fill="white">&#8220;</text>
    </g>
  </g>

  <g id="locked" transform="translate(0,330)">
    <use xlink:href="#butbg" />
    <g rx="20" ry="20">
      <rect fill="black" x="70" y="130" width="170" height="120" />
      <rect fill="white" x="70" y="140" width="170" height="120" />
    </g>
    <g fill="none" stroke-width="30">
      <path stroke="black" d="M106,132 v-30 a10,10 0 0 1 100,0 v30" />
      <path stroke="white" d="M106,140 v-30 a10,10 0 0 1 100,0 v30" />
    </g>
  </g>

  <g id="heart" transform="translate(330,330)">
    <use xlink:href="#butbg" />
    <path fill="black" transform="scale(.5) translate(-70,-150)" d="M273,239 C206,239 153,292 153,359 C153,493 289,529 381,662 C469,530 610,489 610,359 C610,292 556,239 490,239 C442,239 400,267 381,308 C362,267 321,239 273,239 z" />
    <path fill="white" transform="scale(.5) translate(-70,-135)" d="M273,239 C206,239 153,292 153,359 C153,493 289,529 381,662 C469,530 610,489 610,359 C610,292 556,239 490,239 C442,239 400,267 381,308 C362,267 321,239 273,239 z" />
  </g>
  -->

</svg>
