<?xml version="1.0" standalone="no"?>
<svg xmlns="http://www.w3.org/2000/svg"
  xmlns:xlink="http://www.w3.org/1999/xlink"
  version="1.1" baseProfile="full"
  preserveAspectRatio="xMinYMin"
  width="14" height="14"
  viewBox="0 0 100 100">

  <defs>
    <clipPath id="myclip">
      <path d="M0,100 l20,-40 l20,20 z" />
    </clipPath>
  </defs>

  <circle clip-path="url(#myclip)" cx="0" cy="100" r="20" />
  <path fill="none" stroke="black" stroke-linejoin="round"
    d="M0,100 l20,-40 l60,-60 q15,5 20,20 l-60,60 z" />
  <path stroke="black" d="M20,60 l60,-60 q15,5 20,20 l-60,60 z" />

  <g clip-path="url(#myclip)">
    <path id="diu" transform="rotate(45, 20,66)"
      d="M22,70 l10,-10 -20,0" />
    <use xlink:href="#diu" x="10" y="10" />
  </g>

  <!--
  <path d="M0,100 v-30 l70,-70 30,30 -80,80" />
  <image xlink:href="but_bg.svg" width="100%" height="100%" />

  <g fill="black" stroke="none">
    <rect x="80" y="200" width="250" height="70" transform="rotate(-45,80,200)" />
    <path d="M55,275 l20,-70 50,50 z" />
  </g>
  -->

  <!--
  <g transform="scale(.8) translate(20,30)" fill="white" >
    <rect x="80" y="200" width="250" height="70" transform="rotate(-45,80,200)" />
    <path d="M55,275 l20,-70 50,50 z" />
  </g>
  -->

</svg>
