<?xml version="1.0"?>
<svg xmlns="http://www.w3.org/2000/svg"
  xmlns:xlink="http://www.w3.org/1999/xlink"
  viewBox="0 0 100 100"
  width="100"
  height="100"
  >

  <defs>
    <linearGradient id="taustagradi" x1="0%" x2="0%" y1="0%" y2="100%">
      <stop offset="50%" stop-color="white" />
      <stop offset="100%" stop-color="#c4d1e7" />
    </linearGradient>
    <linearGradient id="viivagradi" x1="0%" x2="0%" y1="0%" y2="100%">
      <stop offset="50%" stop-color="white" />
      <stop offset="100%" stop-color="#c2cbdc" />
    </linearGradient>
  </defs>

  <rect width="100" height="100" fill="url(#taustagradi)" />
  <path stroke="url(#viivagradi)" stroke-width="2"
    stroke-linecap="square"
    d="M-40,100 l100,-100 m10,0 l-100,100 m10,0 l100,-100 m10,0 l-100,100 m10,0 l100,-100 m10,0 l-100,100 m10,0 l100,-100 m10,0 l-100,100 m10,0 l100,-100 m10,0 l-100,100 m10,0 l100,-100 m10,0 l-100,100 m10,0 l100,-100 m10,0 l-100,100" />

  <!-- <image xlink:href="listbg.gif" width="100%" height="100%" /> -->

</svg>
